<?xml version="1.0" encoding="UTF-8"?>
<svg id="viora-svg" xmlns="http://www.w3.org/2000/svg" viewBox="0 0 407.65 244.74">
  <defs>
    <style>
      .cls-1 {
        fill: #7f9086;
      }

      .cls-2 {
        fill: #2e493a;
      }
    </style>
  </defs>
  <path class="cls-2" d="M223.53.22c3-.18,6.45-.19,9.51.01.06-.15.14-.15.23,0,1.57.07,3.15.14,4.75.21.01-.12.02-.22.04-.22,8.33-.16,18.68,2.19,26.81,4.73,21.34,6.66,39.57,19.6,54,35.16,19.22,20.28,30.78,48.13,31.24,75.36v15.36c-.87,57.72-50.2,108.8-108.19,113.43-7.83.63-18.27.62-26.12.06-19.69-1.41-39.13-8.06-55.59-18.92-17.28-12.09-32.05-27.64-41.91-46.72-8.01-15.5-12.37-32.47-12.79-49.24-.17-6.53-.28-14.36.26-21.11,1.11-13.87,5.12-30.29,14.01-41.22,13.73-16.87,40.88-24.39,61.03-15.98,7,2.92,14.58,8.53,15.28,16.55-12.76,3.95-25.36,8.19-35.83,16.71-1.85,1.51-3.58,3.17-4.99,5.1,10.29-7.13,22.05-13.12,34.67-13.75,28.01-.55,63.64.72,78.78,29.7,4.5,9.03,8.73,17.91,12.69,26.64,3.65,7.3,8.47,13.95,14.22,19.74.3.29.52.56.48.78-.17.89-8.12,2.28-9.7,2.54-5.31.86-13.41,1.17-18.7.18-14.04-2.63-21.78-9.86-31.3-19.81l-16.6-19.59c-7.64-8.81-16.23-16.82-25.96-23.28-1.37-.88-.42-1.22.96-1.56,5.54-1.34,15.43.24,20.93,1.82,17.95,5.18,32.53,17.3,41.67,33.53-9.88-28.04-41.91-41.12-69.9-41.53-10.38-.15-19.32,2.05-26.44,10.04-9.43,10.58-10.77,25.65-9.29,39.31,2.52,23.3,13.98,41.02,33.31,54.13,21.65,15.07,52.76,17.46,76.35,5.81,22.45-11.09,38.35-32.81,42.24-57.51,2.22-18.1.81-35.9-8.51-52.85-8.17-14.86-21.43-27.13-37.04-33.84-18.11-7.79-39.09-7.78-57.68-1.7-18.33-15.45-45.49-14.58-65.78-3.76-2.03.66-2.08.43-.78-1.35C155.58,17.35,190.04-.2,223.53.22Z"/>
  <polygon class="cls-1" points="233.04 0 233.04 .23 223.53 .22 223.53 0 233.04 0"/>
  <path class="cls-1" d="M238.01.44l-4.51.02c-.16,0-.25-.14-.24-.23h4.32c.24-.01.41.07.43.21Z"/>
</svg>