<?xml version="1.0" encoding="UTF-8"?>
<svg id="viora-isologotipo-svg" xmlns="http://www.w3.org/2000/svg" viewBox="0 0 407.65 244.74">
  <defs>
    <style>
      .cls-1 {
        fill: #fff;
      }
    </style>
  </defs>
  <path class="cls-1" d="M385.71,171.14c0,.32-.25.6-.51.76l-5.8-.11-5.79-.24-2.53-.52c-5.36-1.09-9.47-6.65-10.08-12.24-1.34,2.5-1.72,4.9-3.67,6.58l-.21-.57c1.11-1.92,2.05-3.92,2.8-6.01.65-.93,1.23-1.18,1.86-.09,1.23,6.46,4.72,10.9,11.44,11.84,4.03.26,8.03.35,12,.26l.48.33Z"/>
  <path class="cls-1" d="M227.1,170.12c-.26.32-.77.57-1.51.75-.4.19-.84.21-1.26.27-1.23.35-2.5.61-3.79.76h-9.86c-.51-.47-1.28-.4-2.02-.52-2.91-.5-5.54-1.51-8.24-2.61-.58-.24-1.14-.41-1.45-.87.18-.47.71-.48,1.58-.05,8.05,3.85,17.19,4.01,25.66,1.96l.9.32Z"/>
  <path class="cls-1" d="M224.32,171.14c-.16.21-.5.31-.84.4l-1.17.36h-1.77c.43-.42,1.08-.41,1.77-.5l2.01-.26Z"/>
  <path class="cls-1" d="M102.28,120.84l15.06-47.92,18.25.04-32.38,98.45-21.25-.04-31.83-98.36,19.19-.11,14.7,46.41,8.99,33.41c.07.25.03.43.2.48.36.1.4.04.5-.31l8.58-32.05Z"/>
  <path class="cls-1" d="M235.23,166.62c-2.54,1.71-5.25,2.88-8.14,3.5-5.49,1.22-8.9,1.78-14.93,1.33-4.12-.31-8.08-1.39-11.82-3.14l-1.4-.42c-3.79-1.87-7.13-4.62-10.06-7.85-5.55-6.13-8.82-13.62-9.45-21.89-.41-5.29.07-10.57,1.8-15.56,1.83-5.27,6.24-8.75,11.6-9.89s11.91.19,13.4,5.44c-3.81,1.17-7.35,2.43-10.3,4.7-.9.81-.28,1.43.51.54l2.94-1.34c.57-.26,1.2-.29,1.64-.64,5.91-1.08,12.48-.7,18.28,1.01,2.58,1.16,5.11,2.53,6.92,4.92,3.71,4.92,4.66,11.68,9.63,16.6-4.79,1.86-11.15,1.15-14.71-2.43l-2.78-2.79-6.12-7.26c-1.9-2.26-4.03-3.98-6.65-5.79,5.07-1.06,9.74,1.3,13.62,4.03.98.75,1.88,1.62,2.65,2.58l1.39,2c.53.25,1.23.94.79,1.52.51.55.78-.07.5-.61-.71.16-.75-.69-.66-1.21l-1.48-2.27c-.53-.44-1.05-.92-1.33-1.56-4.56-4.62-11.31-6.86-18-6.79-2.34.03-4.5.49-6.34,2.11s-3.21,4.03-3.6,6.66c-.92,6.35.34,12.5,4.22,17.69l2.21,2.34c5.69,6.03,14.17,8.26,22.26,6.11,5.94-1.58,10.61-5.55,13.74-10.76,2.35-3.92,3.17-8.15,3.22-12.73.1-11.22-7.43-21.16-18.51-23.45l-4.56-.45-5.46.56-2.86.68c-5.19-4.55-13.38-4.29-19.67-.96,1.35-1.91,2.83-3.26,4.46-4.66,5.81-4.95,12.87-7.99,20.46-8.64,10.83-.93,20.48,2.6,28.2,10.08,6.47,6.26,10.5,14.34,11.17,23.38v7.69c-.77,9.38-5.09,17.78-12.14,23.93-1.57,1.37-3.09,2.47-4.66,3.68Z"/>
  <path class="cls-1" d="M307.57,114.79l-10.64.1-4.58.65c-4.82,1.16-8.54,3.84-9.08,8.96l.02,46.89-18.21-.03v-73.17s18.21-.03,18.21-.03v14.6c.25.12.49.09.67-.01,1.07-4.23,3.16-8.13,6.49-10.93,2.41-2.13,5.17-3.5,8.38-3.54l8.75-.11v16.62Z"/>
  <polygon class="cls-1" points="166.42 171.37 147.7 171.37 147.7 98.19 166.42 98.16 166.42 171.37"/>
  <path class="cls-1" d="M167.88,85c-.5,5.58-5.26,7.77-10.87,7.63-2.23-.06-4.84.02-6.77-1.32-3.17-2.2-4.22-6.13-4.14-9.76.06-2.51.72-4.28,2.51-5.99,1.27-1.21,2.63-2.21,4.62-2.44,2.69-.32,5.67-.37,8.38.01,1.71.24,3.16.93,4.16,2.17,1.07,1.33,2.14,2.64,2.13,4.44l-.03,5.25Z"/>
  <path class="cls-1" d="M219.31,122.4l-4.4-.91-2.71-.29-2.56-.24h-5.49c-1.09,0-2.1.64-3.11.43.64-.51,1.54-.6,2.46-.61l6.9-.07,2.57.22c2.26.19,4.47.64,6.34,1.48Z"/>
  <path class="cls-1" d="M235.23,166.62c-2.75,2.13-6.23,3.46-9.65,4.25l1.51-.75c1.64-.36,3.16-.98,4.75-1.83l3.39-1.67Z"/>
  <path class="cls-1" d="M195.94,122.83c-.09.32-.46.51-.35.95l.86-.41c-.15.54-.75.69-1.24,1.05s-.77.94-1.59.72c.56-1.07,1.51-1.68,2.31-2.3Z"/>
  <path class="cls-1" d="M224.54,135.19c.45.98.21,1.76-.5.61l-.79-1.52c.14.03.34.19.44.16.13-.03.17-.33.18-.46.27.41.39.81.66,1.21Z"/>
  <path class="cls-1" d="M221.87,132.28l-2.65-2.58c1.22.85,1.4.79,2.65,2.58Z"/>
  <path class="cls-1" d="M222.4,131.71c-.67-.28-1.29-.81-1.33-1.56.51.51.93.95,1.33,1.56Z"/>
  <path class="cls-1" d="M385.65,156.87l-8-.17-.06-38.75c-.68-4.64-2.09-8.72-4.86-12.39l-1.66-1.86-2.04-1.77c-2.1-1.83-4.95-2.74-7.77-3.05l-5.5-.6-20.04.02c-6.35,0-14.14,6.16-17.38,11.65l10.73,9.57c4.39-5.9,9.39-9.7,16.92-9.22,3.25-.19,6.43.45,9.14,2.26,2.65,1.77,4.42,6.02,4.44,9.16l.03,6.71-15.55.16-6.41.64c-5.15.52-9.97,2.27-14.18,5.25-4.63,3.29-7.26,8.1-7.85,13.68-.67,6.38.73,12.95,5.01,17.74,2.25,2.52,5.01,4.34,8.41,4.75l5.57.68,10.64.02c2.02,0,4.01-.51,5.83-1.2,2.64-1,4.28-3.08,6.26-4.78,1.82-2.34,2.91-6.88,3.45-6.88.18,0,.46.06.53.38.57,2.8,1.53,5.5,3.38,7.75,2.71,3.29,6.88,4.73,11.13,4.51l3.8.21,5.07.07c.41,0,.76-.13,1-.27l-.06-14.27ZM359.57,150.1c0,2.04-.98,3.81-2.3,5.29-4.38,4.75-14.15,5.72-19.65,2.64-2.95-1.65-3.82-4.9-3.82-8.1,0-6.49,2.9-9.03,9.31-10.19l4.77-.28,11.72-.06-.04,10.7Z"/>
  <path class="cls-1" d="M224.04,135.8c.11.01.36.27.44.18.13-.15.04-.65.05-.79.35.51.67,1.06.81,1.85-1.06.19-1.02-.7-1.3-1.24Z"/>
</svg>