<?xml version="1.0" encoding="UTF-8"?>
<svg version="1.1" xmlns="http://www.w3.org/2000/svg" width="512" height="512">
<path d="M0 0 C3.65108237 0.00918186 7.30209338 -0.00498315 10.95316076 -0.01591969 C18.07729812 -0.03357171 25.20126555 -0.02992502 32.32540917 -0.01826912 C38.12282883 -0.00918205 43.92020134 -0.0080334 49.71762609 -0.01236439 C50.54730093 -0.01297732 51.37697577 -0.01359025 52.23179227 -0.01422176 C53.91802098 -0.01550085 55.60424967 -0.0167977 57.29047835 -0.01811212 C73.04870767 -0.0294789 88.80684343 -0.01646581 104.5650574 0.00508934 C118.04388807 0.02295676 131.52258087 0.01985155 145.00140905 0.0014143 C160.70881904 -0.02006175 176.41614734 -0.02838063 192.12356997 -0.01613665 C193.80309501 -0.01486264 195.48262007 -0.01360516 197.16214514 -0.01236439 C198.40121609 -0.01143873 198.40121609 -0.01143873 199.66531879 -0.01049438 C205.44603972 -0.00706161 211.22670821 -0.01282471 217.00742102 -0.0222826 C224.06614618 -0.03357921 231.12469377 -0.03030351 238.18339896 -0.00915962 C241.77488743 0.001249 245.36608142 0.00565047 248.95756674 -0.00775623 C268.09727101 -0.07328134 286.90933004 0.52443285 304.75238562 8.21039867 C305.57230993 8.55288647 306.39223425 8.89537426 307.23700476 9.24824047 C320.60642062 15.00290774 331.73309873 22.7322005 342.43988562 32.52289867 C343.23910437 33.23961742 344.03832312 33.95633617 344.86176062 34.69477367 C356.18886971 45.37920991 364.16015204 58.39535165 370.43988562 72.52289867 C371.16304968 74.12198071 371.16304968 74.12198071 371.90082312 75.75336742 C379.58130665 94.11670533 380.03536198 112.5333025 379.96278429 132.15069246 C379.95361301 135.82904003 379.96776239 139.50731626 379.97870398 143.18564892 C379.99636691 150.36506698 379.99270433 157.54431652 379.98105341 164.72374082 C379.97197073 170.56552927 379.97081582 176.40727094 379.97514868 182.24906445 C379.97576161 183.08471422 379.97637454 183.92036399 379.97700605 184.78133649 C379.97828512 186.47964646 379.97958198 188.17795642 379.98089641 189.87626636 C379.99226639 205.75177635 379.97924502 221.62719353 379.95769495 237.50268829 C379.93982723 251.08531786 379.94293235 264.66781063 379.96136999 278.25043774 C379.98284032 294.0742931 379.99116809 309.89806738 379.97892094 325.72193527 C379.97764692 327.41353447 379.97638943 329.10513368 379.97514868 330.7967329 C379.97453158 331.62874413 379.97391447 332.46075535 379.97327867 333.31797904 C379.9698442 339.14374172 379.97561274 344.9694524 379.98506689 350.79520702 C379.99635708 357.90778331 379.99310096 365.02018334 379.97194391 372.13273978 C379.96152686 375.75245041 379.95714883 379.37186861 379.97054052 382.99157619 C380.03507673 402.01036175 379.30840309 420.02955978 371.75238562 437.77289867 C371.40989782 438.59733471 371.06741003 439.42177074 370.71454382 440.27118969 C364.97818218 453.67073882 357.24373764 464.80172716 347.43988562 475.52289867 C346.72316687 476.32211742 346.00644812 477.12133617 345.26801062 477.94477367 C334.57851774 489.27724356 321.56629663 497.22880602 307.43988562 503.52289867 C305.85820593 504.24606274 305.85820593 504.24606274 304.24457312 504.98383617 C285.78204109 512.77493025 266.61830082 513.11947959 246.87977123 513.04579735 C243.22868886 513.03661549 239.57767785 513.0507805 235.92661047 513.06171703 C228.80247311 513.07936906 221.67850568 513.07572237 214.55436206 513.06406647 C208.75694241 513.0549794 202.95956989 513.05383075 197.16214514 513.05816174 C196.3324703 513.05877467 195.50279546 513.0593876 194.64797896 513.06001911 C192.96175026 513.06129819 191.27552156 513.06259505 189.58929288 513.06390947 C173.83106357 513.07527625 158.0729278 513.06226316 142.31471384 513.04070801 C128.83588317 513.02284058 115.35719036 513.0259458 101.87836218 513.04438305 C86.17095219 513.06585909 70.46362389 513.07417798 54.75620127 513.06193399 C53.07667622 513.06065999 51.39715116 513.0594025 49.71762609 513.05816174 C48.89157879 513.05754463 48.06553149 513.05692753 47.21445245 513.05629173 C41.43373151 513.05285896 35.65306302 513.05862206 29.87235022 513.06807995 C22.81362505 513.07937656 15.75507746 513.07610086 8.69637227 513.05495697 C5.10488381 513.04454834 1.51368981 513.04014687 -2.07779551 513.05355358 C-21.21749977 513.11907869 -40.02955881 512.52136449 -57.87261438 504.83539867 C-58.6925387 504.49291088 -59.51246302 504.15042309 -60.35723352 503.79755688 C-73.72664939 498.04288961 -84.85332749 490.31359685 -95.56011438 480.52289867 C-96.35933313 479.80617992 -97.15855188 479.08946117 -97.98198938 478.35102367 C-109.30909848 467.66658744 -117.28038081 454.6504457 -123.56011438 440.52289867 C-124.28327845 438.92381664 -124.28327845 438.92381664 -125.02105188 437.29242992 C-132.68809484 418.96122721 -133.15575525 400.57767617 -133.08301306 380.99430692 C-133.07384104 377.33025519 -133.08799157 373.66627504 -133.09893274 370.00223827 C-133.11659545 362.85055848 -133.11293304 355.69904786 -133.10128218 348.5473618 C-133.0921987 342.72751171 -133.09104493 336.90770859 -133.09537745 331.08785343 C-133.09599038 330.25526774 -133.09660331 329.42268205 -133.09723482 328.56486649 C-133.09851389 326.87275925 -133.09981075 325.18065203 -133.10112518 323.48854481 C-133.11249528 307.67070844 -133.09947397 291.85296523 -133.07792372 276.03514414 C-133.0600593 262.50456714 -133.06315838 248.97412749 -133.08159876 235.44355297 C-133.1030746 219.67865158 -133.11139352 203.91383159 -133.0991497 188.14891762 C-133.0978757 186.46319832 -133.09661821 184.77747901 -133.09537745 183.09175968 C-133.09476034 182.26265328 -133.09414324 181.43354688 -133.09350744 180.57931604 C-133.09007436 174.7765654 -133.09583852 168.973867 -133.10529566 163.17112446 C-133.11659217 156.08492696 -133.11331691 148.99890634 -133.09217268 141.91272873 C-133.08176341 138.30707074 -133.07736368 134.70170608 -133.09076929 131.09605122 C-133.15613891 111.92490948 -132.571479 93.08339894 -124.87261438 75.21039867 C-124.53012659 74.39047436 -124.1876388 73.57055004 -123.83477259 72.72577953 C-118.08010532 59.35636367 -110.35081256 48.22968556 -100.56011438 37.52289867 C-99.84339563 36.72367992 -99.12667688 35.92446117 -98.38823938 35.10102367 C-87.69874651 23.76855379 -74.6865254 15.81699132 -60.56011438 9.52289867 C-59.50566126 9.0407893 -58.45120813 8.55867992 -57.36480188 8.06196117 C-38.90226986 0.2708671 -19.73852959 -0.07368225 0 0 Z " fill="#2E4A3A" transform="translate(132.5601143836975,-0.5228986740112305)"/>
<path d="M0 0 C1.31532715 0.00346436 2.6306543 0.00692871 3.98583984 0.01049805 C13.7329175 0.11927971 22.79654362 1.01041818 32.25 3.3125 C33.27996094 3.5290625 34.30992187 3.745625 35.37109375 3.96875 C59.51185114 9.35473571 80.95207126 21.58653704 99.0078125 38.2578125 C100.94106313 40.02939757 102.91289334 41.71032341 104.9375 43.375 C129.26743591 64.26148791 145.43657247 99.38091495 147.96484375 131.03125 C150.48293583 172.16278621 143.18169574 212.12742335 115.2265625 243.796875 C112.73090289 246.55631312 110.17731237 249.25532845 107.58837891 251.92724609 C106.43428424 253.12176144 105.29923142 254.33462082 104.16796875 255.55078125 C83.05338074 277.7322116 53.06720037 290.59781447 23.25 295.3125 C22.21617187 295.49941406 21.18234375 295.68632812 20.1171875 295.87890625 C-18.27285406 300.18324424 -58.32469649 291.658847 -89.109375 267.7578125 C-92.44162517 265.0695387 -95.61590354 262.22800211 -98.75 259.3125 C-99.66096436 258.46727783 -99.66096436 258.46727783 -100.59033203 257.60498047 C-121.36807993 238.09966419 -135.82506799 214.48292195 -143.625 187 C-143.81602295 186.33258789 -144.0070459 185.66517578 -144.20385742 184.97753906 C-147.39733745 172.94514358 -148.1574855 160.70661881 -148.125 148.3125 C-148.12512085 147.59760406 -148.1252417 146.88270813 -148.12536621 146.14614868 C-148.09522868 133.55058992 -146.90365199 121.54721719 -143.75 109.3125 C-143.29947266 107.55679688 -143.29947266 107.55679688 -142.83984375 105.765625 C-137.65401064 88.43461565 -127.50425494 75.16148086 -111.75 66.3125 C-97.25607788 58.95896598 -79.72483544 55.12605691 -63.81152344 59.80004883 C-54.57514087 62.84041631 -44.79473675 67.52024452 -39.75 76.3125 C-39.09375 79.53125 -39.09375 79.53125 -38.75 82.3125 C-39.5706897 82.55987915 -39.5706897 82.55987915 -40.40795898 82.81225586 C-59.15356416 88.54535365 -74.95481771 95.0920327 -88.75 109.3125 C-87.81994141 108.67634766 -87.81994141 108.67634766 -86.87109375 108.02734375 C-81.54156217 104.49759576 -76.12995082 101.33223432 -70.375 98.5625 C-69.23289062 98.01078125 -68.09078125 97.4590625 -66.9140625 96.890625 C-56.57784265 92.64388971 -46.06423909 91.78875237 -35 91.875 C-34.33545807 91.87704437 -33.67091614 91.87908875 -32.98623657 91.88119507 C-8.40735787 92.00318643 19.01075316 95.24926974 37.7734375 112.61328125 C38.59070313 113.50402344 39.40796875 114.39476562 40.25 115.3125 C40.81187012 115.89717041 41.37374023 116.48184082 41.95263672 117.08422852 C50.24295861 126.44922176 54.7526147 138.2760525 59.96289062 149.50952148 C65.40309937 161.18745128 70.86966537 171.48041563 79.25 181.3125 C80.26079758 182.63766642 81.26551559 183.96766981 82.25 185.3125 C68.14468888 190.40861241 50.11054014 190.84528189 36.25390625 184.92578125 C31.16666225 182.1936203 26.68553779 178.99846629 22.25 175.3125 C21.47011719 174.6834375 20.69023437 174.054375 19.88671875 173.40625 C14.78406424 169.1055671 10.64115686 164.32114562 6.5 159.1015625 C4.33294425 156.41531631 2.07844969 153.85924185 -0.25 151.3125 C-3.34243254 147.92580485 -6.26639712 144.4609698 -9.125 140.875 C-16.81180837 131.43272675 -25.25315527 123.61076758 -35 116.40625 C-37.1127625 114.79766946 -38.95668568 113.25525718 -40.75 111.3125 C-25.06535798 106.93620479 -8.19522927 114.08664657 5.4375 121.5 C18.98914876 129.75518226 29.12402872 141.87624354 37.25 155.3125 C26.42382918 131.80171487 11.760759 118.70718079 -12.140625 109.62109375 C-29.32342086 103.35628162 -52.01512852 98.83442685 -69.37109375 106.46484375 C-80.98297041 112.84518998 -86.4715 122.27943006 -90.8671875 134.390625 C-92.30996868 139.63334712 -92.04697626 145.04245719 -92 150.4375 C-91.99250732 151.55680908 -91.98501465 152.67611816 -91.97729492 153.8293457 C-91.65179836 178.81257051 -82.92068578 199.7297073 -65.44921875 217.67578125 C-46.57535305 235.56116299 -21.7681338 244.99391372 4.23828125 244.5078125 C29.60469708 242.86277905 51.74305646 232.61634567 69.25 214.3125 C85.0686512 196.08720773 92.42173174 175.30474116 92.49023438 151.30883789 C92.4998623 149.27902997 92.53091523 147.2502711 92.5625 145.22070312 C92.76440386 120.34319549 82.91662416 97.7599168 65.84423828 79.89941406 C48.21674919 62.35290884 24.40784518 54.13832082 -0.0625 54.125 C-1.23490234 54.11275391 -2.40730469 54.10050781 -3.61523438 54.08789062 C-11.65852861 54.07441777 -18.91803444 54.89826618 -26.6328125 57.15625 C-32.62485908 58.91001973 -32.62485908 58.91001973 -35.69921875 57.27734375 C-36.98272229 56.22524756 -38.24355365 55.1450804 -39.484375 54.04296875 C-43.95064428 50.63166308 -49.46136105 49.06901546 -54.75 47.3125 C-55.81734375 46.94125 -56.8846875 46.57 -57.984375 46.1875 C-62.85856924 45.05490715 -67.45110625 45.01310025 -72.4375 45.0625 C-73.41630127 45.06926758 -74.39510254 45.07603516 -75.40356445 45.08300781 C-87.28349519 45.25267883 -99.07264464 46.66597288 -109.44140625 52.94140625 C-111.75 54.3125 -111.75 54.3125 -113.75 54.3125 C-106.04774209 34.74970997 -74.79664842 18.92829324 -56.79345703 11.03222656 C-38.66029955 3.52803988 -19.57686098 -0.08422048 0 0 Z " fill="#FCFCFC" transform="translate(255.75,107.6875)"/>
<path d="M0 0 C0.66 0.33 1.32 0.66 2 1 C1.13375 1.84304687 0.2675 2.68609375 -0.625 3.5546875 C-1.75026041 4.66119357 -2.87524628 5.76797888 -4 6.875 C-4.57234375 7.43058594 -5.1446875 7.98617187 -5.734375 8.55859375 C-7.19450782 10.00134404 -8.60149298 11.4974374 -10 13 C-10 13.66 -10 14.32 -10 15 C-11.65 15.66 -13.3 16.32 -15 17 C-13.67879172 14.06769807 -12.25361803 12.01335101 -9.9609375 9.765625 C-9.38085938 9.19199219 -8.80078125 8.61835938 -8.203125 8.02734375 C-7.59984375 7.44082031 -6.9965625 6.85429687 -6.375 6.25 C-5.76398438 5.64800781 -5.15296875 5.04601562 -4.5234375 4.42578125 C-3.02011376 2.94594695 -1.51065144 1.47235324 0 0 Z " fill="#E1E5E2" transform="translate(157,145)"/>
<path d="M0 0 C0.66 0.33 1.32 0.66 2 1 C-0.21689838 5.43379675 -2.77728219 7.46636932 -7 10 C-7.66 9.67 -8.32 9.34 -9 9 C-6.03 6.03 -3.06 3.06 0 0 Z " fill="#415B4C" transform="translate(175,208)"/>
</svg>
