<svg width="19" height="14" viewBox="0 0 19 14" fill="none" xmlns="http://www.w3.org/2000/svg">
<path d="M13.7495 13.5H6.74949C5.53116 13.4999 4.33558 13.1701 3.28954 12.5455C2.2435 11.9209 1.386 11.0249 0.808001 9.95237C0.229999 8.87988 -0.0469581 7.67095 0.00650309 6.45381C0.0599643 5.23666 0.441851 4.05667 1.11166 3.03899C1.78147 2.02132 2.71422 1.2039 3.811 0.673428C4.90777 0.142961 6.12767 -0.0807743 7.34131 0.0259523C8.55495 0.132679 9.71708 0.565888 10.7044 1.27963C11.6918 1.99338 12.4676 2.96104 12.9495 4.08C13.2132 4.02914 13.4809 4.00237 13.7495 4C14.9845 4.07578 16.1491 4.60055 17.024 5.47546C17.8989 6.35037 18.4237 7.51502 18.4995 8.75C18.4995 9.37378 18.3766 9.99145 18.1379 10.5677C17.8992 11.144 17.5493 11.6677 17.1082 12.1088C16.6672 12.5498 16.1435 12.8997 15.5672 13.1384C14.9909 13.3771 14.3733 13.5 13.7495 13.5ZM6.74949 1.5C5.3571 1.5 4.02174 2.05313 3.03717 3.03769C2.05261 4.02226 1.49949 5.35762 1.49949 6.75C1.49949 8.14239 2.05261 9.47775 3.03717 10.4623C4.02174 11.4469 5.3571 12 6.74949 12H13.7495C14.6106 11.9974 15.4357 11.6541 16.0447 11.0452C16.6536 10.4363 16.9968 9.61115 16.9995 8.75C16.9272 7.9123 16.5616 7.12697 15.9671 6.53242C15.3725 5.93788 14.5872 5.57226 13.7495 5.5C13.4079 5.50762 13.07 5.57182 12.7495 5.69C12.5633 5.76455 12.3556 5.76455 12.1695 5.69C12.0812 5.64552 12.0029 5.58359 11.9393 5.50796C11.8757 5.43233 11.8282 5.34457 11.7995 5.25C11.477 4.1626 10.8104 3.20919 9.89974 2.53299C8.98913 1.85679 7.88369 1.49431 6.74949 1.5Z" fill="#2E4A3A"/>
</svg>
